<svg width="256" height="256" xmlns="http://www.w3.org/2000/svg">

 <g>
  <title>background</title>
  <rect fill="none" id="canvas_background" height="402" width="582" y="-1" x="-1"/>
 </g>
 <g>
  <title>Layer 1</title>
  <path fill="#3a86ff" id="svg_2" d="m79.2,176.1l-13.1,-2l-3.4,-36c-1,-16 -14.7,-28.2 -30.7,-27.2c-16,1 -28.2,14.7 -27.2,30.9l3.6,37.7c0.7,11.4 8,21.3 18.6,25.3c2.8,1.4 5.9,2 9.1,1.9l27.5,1.3c2.8,0.1 5.1,-2 5.2,-4.7c0.1,-2.7 -2,-5.1 -4.7,-5.2l-27.8,-1.3c-0.2,0 -0.3,0 -0.5,0c-1.6,0.1 -3.1,-0.2 -4.5,-0.9c-0.2,-0.1 -0.4,-0.2 -0.6,-0.2c-7.1,-2.6 -12,-9.2 -12.5,-16.9l-3.5,-37.8c-0.6,-10.5 7.4,-19.5 17.9,-20.2c10.6,-0.6 19.5,7.4 20.2,18l3.6,37.7c0,0.6 0,1.1 0,1.7c-0.1,2.5 1.7,4.6 4.2,5l17.1,2.7c2.1,0.3 3.6,2.1 3.6,4.2l0,41.7c0,2.7 2.2,5 5,5c2.7,0 5,-2.2 5,-5l0,-41.7c-0.2,-7 -5.2,-12.9 -12.1,-14z" stroke="#3a86ff" stroke-width="12"/>
  <path fill="#3a86ff" id="svg_3" d="m35.5,99.5c14.3,0 26,-11.7 26,-26s-11.7,-26 -26,-26c-14.3,0 -26,11.7 -26,26s11.7,26 26,26zm0,-42.1c8.9,0 16.1,7.2 16.1,16.1s-7.2,16.1 -16.1,16.1c-8.9,0 -16.1,-7.2 -16.1,-16.1s7.3,-16.1 16.1,-16.1z" stroke="#3a86ff" stroke-width="12"/>
  <path fill="#3a86ff" id="svg_4" d="m224,110.9c-15.9,-1 -29.7,11.2 -30.7,27l-3.4,36.2l-13.1,2c-6.9,1.1 -12,7 -12,14l0,41.7c0,2.7 2.2,5 5,5s5,-2.2 5,-5l0,-41.7c0,-2.1 1.5,-3.8 3.6,-4.2l17.1,-2.7c2.5,-0.4 4.3,-2.5 4.2,-5c0,-0.6 0,-1.1 0,-1.5l3.6,-38c0.6,-10.5 9.6,-18.5 20.2,-17.9c10.5,0.6 18.5,9.7 17.9,20l-3.6,38c-0.5,7.5 -5.3,14.1 -12.4,16.7c-0.2,0.1 -0.4,0.2 -0.6,0.2c-1.4,0.7 -2.9,1 -4.5,0.9c-0.2,0 -0.4,0 -0.5,0l-27.8,1.3c-2.7,0.1 -4.9,2.5 -4.7,5.2c0.1,2.7 2.4,4.9 5.2,4.7l27.5,-1.3c3.1,0.1 6.3,-0.5 9.1,-1.9c10.6,-4.1 17.9,-14 18.6,-25.2l3.6,-38c0.9,-15.8 -11.3,-29.6 -27.3,-30.5z" stroke="#3a86ff" stroke-width="12"/>
  <path fill="#3a86ff" id="svg_5" d="m220.5,99.5c14.3,0 26,-11.7 26,-26s-11.7,-26 -26,-26s-26,11.7 -26,26s11.6,26 26,26zm0,-42.1c8.9,0 16.1,7.2 16.1,16.1s-7.2,16.1 -16.1,16.1c-8.9,0 -16.1,-7.2 -16.1,-16.1s7.2,-16.1 16.1,-16.1z" stroke="#3a86ff" stroke-width="12"/>
  <path fill="#3a86ff" id="svg_6" d="m179.3,87.2l0,-62.7c0,-2.9 -2.4,-5.3 -5.3,-5.3l-92,0c-2.9,0 -5.3,2.4 -5.3,5.3l0,62.7c0,2.9 2.4,5.3 5.3,5.3l25.7,0l16.8,16.8c1,1 2.2,1.5 3.5,1.5s2.5,-0.5 3.5,-1.5l16.8,-16.8l25.7,0c3,0 5.3,-2.4 5.3,-5.3zm-9.9,-4.6l-23.2,0c-1.3,0 -2.6,0.5 -3.5,1.5l-14.7,14.7l-14.7,-14.8c-0.9,-0.9 -2.2,-1.5 -3.5,-1.5l-23.2,0l0,-53.3l82.8,0l0,53.4z" stroke="#3a86ff" stroke-width="12"/>
 </g>
</svg>
